<svg width="45" height="45" viewBox="0 0 45 45" fill="none" xmlns="http://www.w3.org/2000/svg">
<g clip-path="url(#clip0_166_2306)">
<path fill-rule="evenodd" clip-rule="evenodd" d="M25.3125 5.625C29.5394 5.625 33.5932 7.30412 36.582 10.293C39.5709 13.2818 41.25 17.3356 41.25 21.5625C41.25 25.7894 39.5709 29.8432 36.582 32.832C33.5932 35.8209 29.5394 37.5 25.3125 37.5H24.375V39.3563C24.375 39.6051 24.326 39.8515 24.2307 40.0814C24.1354 40.3113 23.9957 40.5201 23.8197 40.696C23.6436 40.8719 23.4346 41.0113 23.2047 41.1064C22.9747 41.2014 22.7282 41.2502 22.4794 41.25C17.8669 41.2463 13.1944 39.7069 9.64875 36.555C6.07125 33.3713 3.75375 28.6406 3.75 22.5169V21.5625C3.75 17.3356 5.42912 13.2818 8.41799 10.293C11.4068 7.30412 15.4606 5.625 19.6875 5.625H25.3125ZM15.9375 18.75C15.1916 18.75 14.4762 19.0463 13.9488 19.5738C13.4213 20.1012 13.125 20.8166 13.125 21.5625C13.125 22.3084 13.4213 23.0238 13.9488 23.5512C14.4762 24.0787 15.1916 24.375 15.9375 24.375C16.6834 24.375 17.3988 24.0787 17.9262 23.5512C18.4537 23.0238 18.75 22.3084 18.75 21.5625C18.75 20.8166 18.4537 20.1012 17.9262 19.5738C17.3988 19.0463 16.6834 18.75 15.9375 18.75ZM29.0625 18.75C28.3166 18.75 27.6012 19.0463 27.0738 19.5738C26.5463 20.1012 26.25 20.8166 26.25 21.5625C26.25 22.3084 26.5463 23.0238 27.0738 23.5512C27.6012 24.0787 28.3166 24.375 29.0625 24.375C29.8084 24.375 30.5238 24.0787 31.0512 23.5512C31.5787 23.0238 31.875 22.3084 31.875 21.5625C31.875 20.8166 31.5787 20.1012 31.0512 19.5738C30.5238 19.0463 29.8084 18.75 29.0625 18.75Z" fill="#1082FF"/>
</g>
<defs>
<clipPath id="clip0_166_2306">
<rect width="45" height="45" fill="white"/>
</clipPath>
</defs>
</svg>
