<svg width="40" height="40" viewBox="0 0 40 40" fill="none" xmlns="http://www.w3.org/2000/svg">
<g clip-path="url(#clip0_166_2301)">
<path d="M23.3326 10.4C23.8909 10.4 24.3126 10.635 24.6276 10.97C25.1359 11.51 25.3509 12.305 25.6676 12.9634C27.2909 16.3437 29.8537 19.1847 33.0493 21.1467L33.7726 21.575C34.4276 21.9734 34.9976 22.4384 34.9993 23.33C35.0009 24.55 33.9393 24.9734 33.0493 25.5184C29.8537 27.4804 27.291 30.3215 25.6676 33.7017C25.3509 34.3617 25.1343 35.1567 24.6276 35.6967C24.3143 36.0317 23.8909 36.2667 23.3326 36.2667C22.7743 36.2667 22.3509 36.0317 22.0376 35.6967C21.7443 35.385 21.5509 34.9934 21.3793 34.5934L21.1293 33.9934C21.0875 33.8958 21.0436 33.7991 20.9976 33.7034C19.3743 30.3231 16.8116 27.482 13.6159 25.52L13.0809 25.2017C12.3593 24.7684 11.6643 24.275 11.6659 23.33C11.6693 22.1134 12.7276 21.6934 13.6159 21.1484C16.8116 19.1864 19.3743 16.3453 20.9976 12.965C21.3143 12.305 21.5309 11.51 22.0376 10.97C22.3509 10.6367 22.7743 10.4 23.3326 10.4ZM11.2443 9.70837C11.4926 10.0134 11.6409 10.3584 11.8109 10.71C12.2676 11.66 12.9576 12.4767 13.8126 13.08L14.1426 13.2967C15.5693 14.1717 15.6226 15.6467 14.3426 16.57L14.1426 16.7034C13.1324 17.3234 12.3223 18.2215 11.8093 19.29L11.6193 19.6934C11.4576 20.0267 11.2693 20.345 10.9426 20.5567C10.4176 20.8934 9.58094 20.8934 9.05594 20.5567C8.61428 20.2734 8.40594 19.7434 8.18928 19.29C7.67618 18.2215 6.86609 17.3235 5.85594 16.7034C5.55928 16.52 5.27594 16.3484 5.03094 16.0917C4.79141 15.7775 4.66181 15.3932 4.66211 14.9981C4.66241 14.603 4.79259 14.2189 5.03261 13.905C5.28261 13.645 5.54928 13.485 5.85761 13.2967C6.8672 12.6764 7.67671 11.7784 8.18928 10.71C8.36261 10.35 8.50094 10.02 8.75594 9.71004C9.08912 9.38618 9.53546 9.20499 10.0001 9.20499C10.4648 9.20499 10.9111 9.38618 11.2443 9.71004V9.70837ZM16.6659 3.33337C17.108 3.33337 17.5319 3.50897 17.8445 3.82153C18.157 4.13409 18.3326 4.55801 18.3326 5.00004C18.7746 5.00004 19.1986 5.17564 19.5111 5.4882C19.8237 5.80076 19.9993 6.22468 19.9993 6.66671C19.9993 7.10874 19.8237 7.53266 19.5111 7.84522C19.1986 8.15778 18.7746 8.33337 18.3326 8.33337C18.3326 8.7754 18.157 9.19932 17.8445 9.51189C17.5319 9.82445 17.108 10 16.6659 10C16.2239 10 15.8 9.82445 15.4874 9.51189C15.1749 9.19932 14.9993 8.7754 14.9993 8.33337C14.5572 8.33337 14.1333 8.15778 13.8208 7.84522C13.5082 7.53266 13.3326 7.10874 13.3326 6.66671C13.3326 6.22468 13.5082 5.80076 13.8208 5.4882C14.1333 5.17564 14.5572 5.00004 14.9993 5.00004C14.9993 4.55801 15.1749 4.13409 15.4874 3.82153C15.8 3.50897 16.2239 3.33337 16.6659 3.33337Z" fill="#1082FF"/>
</g>
<defs>
<clipPath id="clip0_166_2301">
<rect width="40" height="40" fill="white"/>
</clipPath>
</defs>
</svg>
