<svg width="54" height="54" viewBox="0 0 54 54" fill="none" xmlns="http://www.w3.org/2000/svg">
<g clip-path="url(#clip0_265_999)">
<path fill-rule="evenodd" clip-rule="evenodd" d="M9 11.25C9 9.45979 9.71116 7.7429 10.977 6.47703C12.2429 5.21116 13.9598 4.5 15.75 4.5H38.25C40.0402 4.5 41.7571 5.21116 43.023 6.47703C44.2888 7.7429 45 9.45979 45 11.25V47.313C45 50.058 41.895 51.6555 39.663 50.0602L27 41.0153L14.337 50.0602C12.1028 51.6578 9 50.0602 9 47.3152V11.25ZM15.75 9C15.1533 9 14.581 9.23705 14.159 9.65901C13.7371 10.081 13.5 10.6533 13.5 11.25V45.1283L25.038 36.8865C25.6105 36.4775 26.2964 36.2576 27 36.2576C27.7036 36.2576 28.3895 36.4775 28.962 36.8865L40.5 45.1283V11.25C40.5 10.6533 40.2629 10.081 39.841 9.65901C39.419 9.23705 38.8467 9 38.25 9H15.75Z" fill="#5C5C5C"/>
</g>
<defs>
<clipPath id="clip0_265_999">
<rect width="54" height="54" fill="white"/>
</clipPath>
</defs>
</svg>
