<svg width="54" height="54" viewBox="0 0 54 54" fill="none" xmlns="http://www.w3.org/2000/svg">
<g clip-path="url(#clip0_265_744)">
<path d="M27 4.5C39.4268 4.5 49.5 14.5733 49.5 27C49.5 39.4268 39.4268 49.5 27 49.5C22.9009 49.5064 18.8787 48.3872 15.372 46.2645L8.55002 48.2715C8.15833 48.3867 7.74284 48.3943 7.34721 48.2935C6.95158 48.1926 6.59043 47.987 6.30173 47.6983C6.01303 47.4096 5.80744 47.0484 5.70657 46.6528C5.6057 46.2572 5.61329 45.8417 5.72852 45.45L7.73552 38.628C5.61368 35.1209 4.49457 31.099 4.50002 27C4.50002 14.5733 14.5733 4.5 27 4.5ZM19.125 23.625C18.2299 23.625 17.3715 23.9806 16.7385 24.6135C16.1056 25.2464 15.75 26.1049 15.75 27C15.75 27.8951 16.1056 28.7536 16.7385 29.3865C17.3715 30.0194 18.2299 30.375 19.125 30.375C20.0201 30.375 20.8786 30.0194 21.5115 29.3865C22.1444 28.7536 22.5 27.8951 22.5 27C22.5 26.1049 22.1444 25.2464 21.5115 24.6135C20.8786 23.9806 20.0201 23.625 19.125 23.625ZM34.875 23.625C33.9799 23.625 33.1215 23.9806 32.4885 24.6135C31.8556 25.2464 31.5 26.1049 31.5 27C31.5 27.8951 31.8556 28.7536 32.4885 29.3865C33.1215 30.0194 33.9799 30.375 34.875 30.375C35.7701 30.375 36.6286 30.0194 37.2615 29.3865C37.8944 28.7536 38.25 27.8951 38.25 27C38.25 26.1049 37.8944 25.2464 37.2615 24.6135C36.6286 23.9806 35.7701 23.625 34.875 23.625Z" fill="#1082FF"/>
</g>
<defs>
<clipPath id="clip0_265_744">
<rect width="54" height="54" fill="white"/>
</clipPath>
</defs>
</svg>
