<svg width="54" height="54" viewBox="0 0 54 54" fill="none" xmlns="http://www.w3.org/2000/svg">
<g clip-path="url(#clip0_265_864)">
<path fill-rule="evenodd" clip-rule="evenodd" d="M20.25 4.50001C21.5271 4.49849 22.7898 4.76946 23.9538 5.29481C25.1178 5.82017 26.1563 6.58782 27 7.54651C27.8437 6.58782 28.8822 5.82017 30.0462 5.29481C31.2102 4.76946 32.4729 4.49849 33.75 4.50001H34.875C35.7701 4.50001 36.6285 4.85559 37.2615 5.48852C37.8944 6.12146 38.25 6.9799 38.25 7.87501V9.00001C38.25 10.6403 37.8113 12.177 37.0462 13.5H42.75C43.9435 13.5 45.0881 13.9741 45.932 14.818C46.7759 15.6619 47.25 16.8065 47.25 18V24.75C47.25 25.5399 47.042 26.3159 46.6471 26.9999C46.2521 27.684 45.6841 28.2521 45 28.647V40.5C45 42.2902 44.2888 44.0071 43.023 45.273C41.7571 46.5388 40.0402 47.25 38.25 47.25H15.75C13.9598 47.25 12.2429 46.5388 10.977 45.273C9.71116 44.0071 9 42.2902 9 40.5V28.647C8.31593 28.2521 7.74787 27.684 7.35291 26.9999C6.95796 26.3159 6.75002 25.5399 6.75 24.75V18C6.75 16.8065 7.22411 15.6619 8.06802 14.818C8.91193 13.9741 10.0565 13.5 11.25 13.5H16.9537C16.1628 12.1324 15.7475 10.5799 15.75 9.00001V7.87501C15.75 6.9799 16.1056 6.12146 16.7385 5.48852C17.3714 4.85559 18.2299 4.50001 19.125 4.50001H20.25ZM40.5 29.25H29.25V42.75H38.25L38.5133 42.7343C39.0155 42.675 39.4831 42.4483 39.8407 42.0907C40.1983 41.7331 40.425 41.2655 40.4842 40.7633L40.5 40.5V29.25ZM24.75 29.25H13.5V40.5C13.5001 41.0511 13.7024 41.583 14.0686 41.9948C14.4348 42.4067 14.9394 42.6698 15.4867 42.7343L15.75 42.75H24.75V29.25ZM42.75 18H29.25V24.75H42.75V18ZM24.75 18H11.25V24.75H24.75V18ZM20.25 9.00001C20.25 10.1935 20.7241 11.3381 21.568 12.182C22.4119 13.0259 23.5565 13.5 24.75 13.5C24.75 12.3065 24.2759 11.1619 23.432 10.318C22.5881 9.47411 21.4435 9.00001 20.25 9.00001ZM33.75 9.00001C32.5565 9.00001 31.4119 9.47411 30.568 10.318C29.7241 11.1619 29.25 12.3065 29.25 13.5C30.4435 13.5 31.5881 13.0259 32.432 12.182C33.2759 11.3381 33.75 10.1935 33.75 9.00001Z" fill="#5C5C5C"/>
</g>
<defs>
<clipPath id="clip0_265_864">
<rect width="54" height="54" fill="white"/>
</clipPath>
</defs>
</svg>
