<svg width="24" height="24" viewBox="0 0 24 24" fill="none" xmlns="http://www.w3.org/2000/svg">
<g clip-path="url(#clip0_166_2355)">
<path fill-rule="evenodd" clip-rule="evenodd" d="M13.2281 2.68799C12.877 2.41488 12.4449 2.2666 12.0001 2.2666C11.5553 2.2666 11.1232 2.41488 10.7721 2.68799L2.3881 9.20799C1.6361 9.79499 2.0501 11 3.0031 11H4.0001V19C4.0001 19.5304 4.21082 20.0391 4.58589 20.4142C4.96096 20.7893 5.46967 21 6.0001 21H18.0001C18.5305 21 19.0392 20.7893 19.4143 20.4142C19.7894 20.0391 20.0001 19.5304 20.0001 19V11H20.9971C21.9491 11 22.3651 9.79499 21.6121 9.20899L13.2281 2.68799ZM13.0001 19V13C13.0001 12.7348 12.8947 12.4804 12.7072 12.2929C12.5197 12.1053 12.2653 12 12.0001 12C11.7349 12 11.4805 12.1053 11.293 12.2929C11.1055 12.4804 11.0001 12.7348 11.0001 13V19H6.0001V10.01C6.0001 9.69299 5.8541 9.40999 5.6251 9.22499L12.0001 4.26699L18.3751 9.22499C18.2579 9.31953 18.1634 9.43911 18.0986 9.57495C18.0337 9.71079 18 9.85944 18.0001 10.01V19H13.0001Z" fill="#09244B"/>
</g>
<defs>
<clipPath id="clip0_166_2355">
<rect width="24" height="24" fill="white"/>
</clipPath>
</defs>
</svg>
