<svg width="24" height="24" viewBox="0 0 24 24" fill="none" xmlns="http://www.w3.org/2000/svg">
<g clip-path="url(#clip0_166_2367)">
<path fill-rule="evenodd" clip-rule="evenodd" d="M5.00066 8.99999C5.00063 8.03167 5.2015 7.07387 5.59058 6.18714C5.97965 5.30042 6.54847 4.50407 7.26106 3.84843C7.97366 3.19279 8.81453 2.69213 9.73052 2.37809C10.6465 2.06406 11.6177 1.94348 12.5827 2.02399C12.7151 2.03273 12.8444 2.06772 12.9631 2.12694C13.0819 2.18616 13.1877 2.26841 13.2743 2.36892C13.3609 2.46942 13.4267 2.58616 13.4678 2.71234C13.5088 2.83851 13.5244 2.97159 13.5135 3.10384C13.5026 3.23608 13.4655 3.36483 13.4044 3.48259C13.3432 3.60036 13.2593 3.70478 13.1574 3.78977C13.0555 3.87476 12.9377 3.93862 12.8109 3.97763C12.684 4.01664 12.5507 4.03002 12.4187 4.01699C11.7292 3.95915 11.0352 4.04503 10.3807 4.2692C9.72612 4.49337 9.12521 4.85094 8.61595 5.31931C8.1067 5.78767 7.7002 6.35663 7.42216 6.99019C7.14412 7.62374 7.00059 8.30811 7.00066 8.99999V12.528C7.00063 12.9939 6.8921 13.4533 6.68366 13.87L5.61866 16H18.3827L17.3177 13.87C17.1093 13.4533 17.0007 12.9939 17.0007 12.528V11C17.0007 10.7348 17.106 10.4804 17.2936 10.2929C17.4811 10.1054 17.7354 9.99999 18.0007 9.99999C18.2659 9.99999 18.5202 10.1054 18.7078 10.2929C18.8953 10.4804 19.0007 10.7348 19.0007 11V12.528C19.0005 12.6831 19.0365 12.8362 19.1057 12.975L20.8227 16.408C20.9065 16.5757 20.9461 16.7621 20.9377 16.9494C20.9293 17.1368 20.8731 17.3188 20.7745 17.4783C20.6759 17.6378 20.5382 17.7695 20.3744 17.8608C20.2106 17.9521 20.0262 18 19.8387 18H15.8747C15.6522 18.8582 15.1511 19.6183 14.4499 20.1609C13.7488 20.7035 12.8873 20.9979 12.0007 20.9979C11.1141 20.9979 10.2526 20.7035 9.5514 20.1609C8.85023 19.6183 8.3491 18.8582 8.12666 18H4.16266C3.97514 18 3.79072 17.9521 3.62693 17.8608C3.46314 17.7695 3.3254 17.6378 3.22681 17.4783C3.12822 17.3188 3.07204 17.1368 3.06361 16.9494C3.05518 16.7621 3.09479 16.5757 3.17866 16.408L4.89466 12.975C4.96421 12.8362 5.0005 12.6832 5.00066 12.528V8.99999ZM10.2687 18C10.4442 18.304 10.6967 18.5565 11.0007 18.732C11.3047 18.9075 11.6496 18.9999 12.0007 18.9999C12.3517 18.9999 12.6966 18.9075 13.0006 18.732C13.3046 18.5565 13.5571 18.304 13.7327 18H10.2687ZM17.5007 3.99999C17.3037 3.99999 17.1086 4.03879 16.9266 4.11417C16.7446 4.18956 16.5793 4.30004 16.44 4.43933C16.3007 4.57862 16.1902 4.74398 16.1148 4.92597C16.0395 5.10796 16.0007 5.30301 16.0007 5.49999C16.0007 5.69698 16.0395 5.89203 16.1148 6.07402C16.1902 6.25601 16.3007 6.42137 16.44 6.56065C16.5793 6.69994 16.7446 6.81043 16.9266 6.88581C17.1086 6.96119 17.3037 6.99999 17.5007 6.99999C17.8985 6.99999 18.28 6.84196 18.5613 6.56065C18.8426 6.27935 19.0007 5.89782 19.0007 5.49999C19.0007 5.10217 18.8426 4.72064 18.5613 4.43933C18.28 4.15803 17.8985 3.99999 17.5007 3.99999ZM14.0007 5.49999C14.0007 4.57174 14.3694 3.6815 15.0258 3.02512C15.6822 2.36874 16.5724 1.99999 17.5007 1.99999C18.4289 1.99999 19.3192 2.36874 19.9755 3.02512C20.6319 3.6815 21.0007 4.57174 21.0007 5.49999C21.0007 6.42825 20.6319 7.31849 19.9755 7.97487C19.3192 8.63124 18.4289 8.99999 17.5007 8.99999C16.5724 8.99999 15.6822 8.63124 15.0258 7.97487C14.3694 7.31849 14.0007 6.42825 14.0007 5.49999Z" fill="#09244B"/>
<circle cx="17.5" cy="5.5" r="2.5" fill="#1082FF" stroke="#09244B" stroke-width="2"/>
</g>
<defs>
<clipPath id="clip0_166_2367">
<rect width="24" height="24" fill="white"/>
</clipPath>
</defs>
</svg>
