<svg width="24" height="24" viewBox="0 0 24 24" fill="none" xmlns="http://www.w3.org/2000/svg">
<g clip-path="url(#clip0_166_2275)">
<path fill-rule="evenodd" clip-rule="evenodd" d="M4.23438 5.25549C4.23438 4.45984 4.55045 3.69678 5.11305 3.13417C5.67566 2.57156 6.43873 2.25549 7.23438 2.25549H17.2344C18.03 2.25549 18.7931 2.57156 19.3557 3.13417C19.9183 3.69678 20.2344 4.45984 20.2344 5.25549V21.2835C20.2344 22.5035 18.8544 23.2135 17.8624 22.5045L12.2344 18.4845L6.60638 22.5045C5.61338 23.2145 4.23438 22.5045 4.23438 21.2845V5.25549ZM7.23438 4.25549C6.96916 4.25549 6.7148 4.36085 6.52727 4.54839C6.33973 4.73592 6.23438 4.99028 6.23438 5.25549V20.3125L11.3624 16.6495C11.6168 16.4677 11.9217 16.37 12.2344 16.37C12.5471 16.37 12.8519 16.4677 13.1064 16.6495L18.2344 20.3125V5.25549C18.2344 4.99028 18.129 4.73592 17.9415 4.54839C17.7539 4.36085 17.4996 4.25549 17.2344 4.25549H7.23438Z" fill="#09244B"/>
</g>
<defs>
<clipPath id="clip0_166_2275">
<rect width="24" height="24" fill="white"/>
</clipPath>
</defs>
</svg>
