<svg width="60" height="60" viewBox="0 0 60 60" fill="none" xmlns="http://www.w3.org/2000/svg">
<g clip-path="url(#clip0_166_2326)">
<path fill-rule="evenodd" clip-rule="evenodd" d="M26.2501 5C27.7001 5 29.1251 5.145 30.4976 5.425C31.1474 5.55695 31.7182 5.94161 32.0843 6.49437C32.4505 7.04714 32.5821 7.72272 32.4501 8.3725C32.3182 9.02228 31.9335 9.59303 31.3808 9.9592C30.828 10.3254 30.1524 10.4569 29.5026 10.325C26.3539 9.68266 23.0853 9.98836 20.1103 11.2035C17.1352 12.4186 14.5873 14.4885 12.7885 17.1516C10.9898 19.8146 10.021 22.9513 10.0048 26.1648C9.98852 29.3784 10.9255 32.5247 12.6972 35.2058C14.4689 37.887 16.9957 39.9826 19.9583 41.2277C22.9209 42.4729 26.1862 42.8117 29.3413 42.2012C32.4965 41.5908 35.3997 40.0585 37.6841 37.7982C39.9685 35.5379 41.5313 32.651 42.1751 29.5025C42.2405 29.1808 42.3685 28.875 42.552 28.6028C42.7355 28.3305 42.9708 28.0971 43.2445 27.9158C43.5182 27.7345 43.825 27.6089 44.1472 27.5461C44.4695 27.4833 44.8009 27.4847 45.1226 27.55C45.4444 27.6153 45.7501 27.7434 46.0224 27.9269C46.2946 28.1104 46.528 28.3457 46.7093 28.6194C46.8907 28.8931 47.0163 29.1998 47.079 29.5221C47.1418 29.8443 47.1405 30.1758 47.0751 30.4975C46.469 33.4799 45.2266 36.2965 43.4326 38.755L42.9401 39.405L52.0701 48.535C52.5233 48.9839 52.7877 49.5889 52.8094 50.2264C52.831 50.8638 52.6082 51.4854 52.1865 51.964C51.7648 52.4425 51.1762 52.7418 50.5411 52.8005C49.906 52.8593 49.2724 52.6731 48.7701 52.28L48.5351 52.07L39.4051 42.94C36.7438 45.0374 33.6194 46.4679 30.2927 47.1123C26.966 47.7566 23.5335 47.5961 20.2814 46.644C17.0294 45.6919 14.0522 43.976 11.5982 41.6393C9.14426 39.3026 7.28466 36.413 6.17459 33.2115C5.06452 30.0099 4.73616 26.5894 5.21692 23.2351C5.69767 19.8809 6.97359 16.6902 8.93824 13.9294C10.9029 11.1685 13.4993 8.91756 16.5108 7.36423C19.5223 5.81091 22.8616 5.00029 26.2501 5ZM47.5001 2.5C47.9678 2.5 48.4262 2.63119 48.823 2.87868C49.2199 3.12616 49.5394 3.48001 49.7451 3.9L49.8651 4.1925L50.1901 5.1375C50.5331 6.14296 51.0858 7.06408 51.8116 7.83986C52.5374 8.61564 53.4197 9.22838 54.4001 9.6375L54.8626 9.8125L55.8076 10.135C56.2756 10.2947 56.6857 10.5895 56.9861 10.9822C57.2866 11.375 57.4637 11.848 57.4953 12.3414C57.5269 12.8349 57.4114 13.3266 57.1635 13.7545C56.9157 14.1823 56.5465 14.527 56.1026 14.745L55.8076 14.865L54.8626 15.19C53.8572 15.533 52.9361 16.0857 52.1603 16.8115C51.3845 17.5373 50.7718 18.4196 50.3626 19.4L50.1876 19.8625L49.8651 20.8075C49.7052 21.2753 49.4101 21.6853 49.0173 21.9854C48.6244 22.2856 48.1513 22.4625 47.6579 22.4938C47.1644 22.5251 46.6728 22.4094 46.2451 22.1613C45.8174 21.9132 45.4729 21.5439 45.2551 21.1L45.1351 20.8075L44.8101 19.8625C44.4671 18.857 43.9144 17.9359 43.1887 17.1601C42.4629 16.3844 41.5806 15.7716 40.6001 15.3625L40.1376 15.1875L39.1926 14.865C38.7247 14.7053 38.3145 14.4105 38.0141 14.0178C37.7137 13.625 37.5365 13.152 37.505 12.6586C37.4734 12.1651 37.5889 11.6734 37.8367 11.2455C38.0846 10.8177 38.4538 10.473 38.8976 10.255L39.1926 10.135L40.1376 9.81C41.1431 9.467 42.0642 8.9143 42.84 8.18852C43.6158 7.46273 44.2285 6.58042 44.6376 5.6L44.8126 5.1375L45.1351 4.1925C45.3036 3.69897 45.6221 3.27046 46.0462 2.96697C46.4703 2.66349 46.9787 2.50021 47.5001 2.5ZM47.5001 10.49C46.9087 11.2342 46.2343 11.9085 45.4901 12.5C46.2351 13.09 46.9076 13.765 47.5001 14.51C48.0901 13.765 48.7651 13.09 49.5101 12.5C48.766 11.9085 48.0916 11.2342 47.5001 10.49Z" fill="#1082FF"/>
</g>
<defs>
<clipPath id="clip0_166_2326">
<rect width="60" height="60" fill="white"/>
</clipPath>
</defs>
</svg>
