<svg width="60" height="60" viewBox="0 0 60 60" fill="none" xmlns="http://www.w3.org/2000/svg">
<g clip-path="url(#clip0_166_2314)">
<path fill-rule="evenodd" clip-rule="evenodd" d="M26.2501 4.65576C22.8616 4.65605 19.5223 5.46667 16.5108 7.02C13.4993 8.57332 10.9029 10.8243 8.93824 13.5851C6.97359 16.346 5.69767 19.5366 5.21692 22.8909C4.73616 26.2451 5.06452 29.6657 6.17459 32.8672C7.28466 36.0688 9.14426 38.9584 11.5982 41.2951C14.0522 43.6318 17.0294 45.3477 20.2814 46.2998C23.5335 47.2518 26.966 47.4124 30.2927 46.768C33.6194 46.1237 36.7438 44.6932 39.4051 42.5958L48.5351 51.7258C49.0066 52.1812 49.6382 52.4331 50.2936 52.4274C50.9491 52.4217 51.5762 52.1588 52.0397 51.6953C52.5032 51.2318 52.7661 50.6048 52.7718 49.9493C52.7775 49.2938 52.5255 48.6623 52.0701 48.1908L42.9401 39.0608C45.4101 35.9273 46.9481 32.1618 47.3779 28.1951C47.8077 24.2284 47.1121 20.2208 45.3707 16.631C43.6293 13.0412 40.9124 10.0142 37.5309 7.89634C34.1494 5.77853 30.2401 4.65549 26.2501 4.65576ZM10.0001 25.9058C10.0001 21.596 11.7122 17.4627 14.7597 14.4153C17.8071 11.3678 21.9404 9.65576 26.2501 9.65576C30.5599 9.65576 34.6932 11.3678 37.7406 14.4153C40.7881 17.4627 42.5001 21.596 42.5001 25.9058C42.5001 30.2155 40.7881 34.3488 37.7406 37.3962C34.6932 40.4437 30.5599 42.1558 26.2501 42.1558C21.9404 42.1558 17.8071 40.4437 14.7597 37.3962C11.7122 34.3488 10.0001 30.2155 10.0001 25.9058Z" fill="#1082FF"/>
</g>
<defs>
<clipPath id="clip0_166_2314">
<rect width="60" height="60" fill="white" transform="translate(0 -0.344238)"/>
</clipPath>
</defs>
</svg>
