<svg width="50" height="50" viewBox="0 0 50 50" fill="none" xmlns="http://www.w3.org/2000/svg">
<g clip-path="url(#clip0_166_2349)">
<path fill-rule="evenodd" clip-rule="evenodd" d="M37.4816 12.5208L11.2482 22.0062L19.9878 27.0646L27.6941 19.3562C28.085 18.9656 28.6151 18.7462 29.1677 18.7464C29.7204 18.7466 30.2503 18.9664 30.6409 19.3573C31.0316 19.7482 31.2509 20.2783 31.2507 20.8309C31.2505 21.3836 31.0308 21.9135 30.6399 22.3042L22.9316 30.0125L27.9941 38.75L37.4816 12.5208ZM38.1545 7.84582C40.6441 6.94373 43.0566 9.35623 42.1545 11.8458L31.1503 42.2729C30.2461 44.7687 26.8378 45.0729 25.5066 42.775L18.8045 31.1958L7.22531 24.4937C4.9274 23.1625 5.23156 19.7542 7.7274 18.85L38.1545 7.84582Z" fill="#5C5C5C"/>
</g>
<defs>
<clipPath id="clip0_166_2349">
<rect width="50" height="50" fill="white"/>
</clipPath>
</defs>
</svg>
