<svg width="147" height="147" viewBox="0 0 147 147" fill="none" xmlns="http://www.w3.org/2000/svg">
<path d="M67.1221 5.03994C67.1337 4.99849 67.1396 4.97776 67.1423 4.96816C68.9666 -1.42917 78.033 -1.42917 79.8573 4.96816C79.86 4.97776 79.8659 4.99849 79.8776 5.03994C79.9084 5.14917 79.9238 5.20379 79.9383 5.25507C88.4152 35.189 111.811 58.5846 141.745 67.0616C141.796 67.0761 141.851 67.0915 141.96 67.1223C142.001 67.134 142.022 67.1398 142.032 67.1426C148.429 68.9669 148.429 78.0333 142.032 79.8576C142.022 79.8603 142.001 79.8661 141.96 79.8778C141.851 79.9086 141.796 79.924 141.745 79.9385C111.811 88.4155 88.4152 111.811 79.9383 141.745C79.9238 141.796 79.9084 141.851 79.8776 141.96C79.8659 142.002 79.86 142.022 79.8573 142.032C78.033 148.429 68.9666 148.429 67.1423 142.032C67.1396 142.022 67.1337 142.002 67.1221 141.96C67.0913 141.851 67.0759 141.796 67.0613 141.745C58.5844 111.811 35.1888 88.4155 5.25482 79.9385C5.20355 79.924 5.14893 79.9086 5.0397 79.8778C4.99824 79.8661 4.97752 79.8603 4.96792 79.8576C-1.42941 78.0333 -1.42941 68.9669 4.96792 67.1426C4.97752 67.1398 4.99825 67.134 5.0397 67.1223C5.14893 67.0915 5.20355 67.0761 5.25482 67.0616C35.1888 58.5846 58.5844 35.189 67.0613 5.25507C67.0759 5.20379 67.0913 5.14917 67.1221 5.03994Z" fill="white"/>
</svg>
